# Blender v2.93.6 OBJ File: ''
# www.blender.org
mtllib IS4_MiniRod_Calidad_Carpeta.mtl
v -0.078651 0.016514 -0.015403
v -0.080107 0.226853 -0.020784
v 0.070275 0.228275 -0.005861
v 0.071731 0.017936 -0.000480
v -0.079405 0.226677 -0.027835
v -0.080107 0.226853 -0.020784
v -0.078651 0.016514 -0.015403
v -0.077950 0.016339 -0.022455
v 0.070977 0.228099 -0.012912
v 0.070275 0.228275 -0.005861
v -0.080107 0.226853 -0.020784
v -0.079405 0.226677 -0.027835
v 0.072432 0.017760 -0.007532
v 0.071731 0.017936 -0.000480
v 0.070275 0.228275 -0.005861
v 0.070977 0.228099 -0.012912
v -0.077950 0.016339 -0.022455
v -0.078651 0.016514 -0.015403
v 0.071731 0.017936 -0.000480
v 0.072432 0.017760 -0.007532
v 0.084619 0.239917 -0.017610
v 0.084004 0.240071 -0.011420
v -0.092693 0.238399 -0.028954
v -0.092077 0.238246 -0.035145
v -0.090439 0.001471 -0.029088
v -0.092077 0.238246 -0.035145
v -0.092693 0.238399 -0.028954
v -0.091054 0.001626 -0.022898
v 0.085642 0.003297 -0.005363
v 0.084004 0.240071 -0.011420
v 0.084619 0.239917 -0.017610
v 0.086258 0.003142 -0.011554
v 0.085642 0.003297 -0.005363
v 0.086258 0.003142 -0.011554
v -0.090439 0.001471 -0.029088
v -0.091054 0.001626 -0.022898
v 0.021798 0.233502 -0.020730
v 0.020764 0.235441 -0.010498
v -0.030792 0.234953 -0.015615
v -0.029758 0.233013 -0.025847
v -0.029920 0.215594 -0.022559
v -0.029758 0.233013 -0.025847
v -0.030792 0.234953 -0.015615
v -0.030953 0.217533 -0.012327
v -0.030953 0.217533 -0.012327
v -0.030792 0.234953 -0.015615
v 0.020764 0.235441 -0.010498
v 0.020603 0.218021 -0.007211
v 0.020603 0.218021 -0.007211
v 0.020764 0.235441 -0.010498
v 0.021798 0.233502 -0.020730
v 0.021636 0.216082 -0.017443
v 0.020603 0.218021 -0.007211
v 0.021636 0.216082 -0.017443
v -0.029920 0.215594 -0.022559
v -0.030953 0.217533 -0.012327
v 0.006235 0.244719 -0.012865
v -0.005202 0.250721 -0.012641
v -0.004827 0.251882 -0.016532
v 0.006613 0.245574 -0.016748
v 0.000119 0.240491 -0.013644
v -0.005034 0.244062 -0.013693
v -0.005202 0.250721 -0.012641
v 0.006235 0.244719 -0.012865
v -0.004827 0.251882 -0.016532
v -0.004659 0.245224 -0.017584
v 0.000497 0.241346 -0.017527
v 0.006613 0.245574 -0.016748
v -0.005202 0.250721 -0.012641
v -0.016258 0.244507 -0.015098
v -0.015881 0.245361 -0.018981
v -0.004827 0.251882 -0.016532
v -0.010030 0.240395 -0.014651
v -0.016258 0.244507 -0.015098
v -0.005202 0.250721 -0.012641
v -0.005034 0.244062 -0.013693
v -0.015881 0.245361 -0.018981
v -0.009653 0.241250 -0.018535
v -0.004659 0.245224 -0.017584
v -0.004827 0.251882 -0.016532
v -0.016258 0.244507 -0.015098
v -0.014128 0.233501 -0.016566
v -0.013750 0.234355 -0.020449
v -0.015881 0.245361 -0.018981
v -0.015881 0.245361 -0.018981
v -0.013750 0.234355 -0.020449
v -0.004404 0.235668 -0.019253
v -0.009653 0.241250 -0.018535
v -0.004781 0.234813 -0.015369
v -0.014128 0.233501 -0.016566
v -0.016258 0.244507 -0.015098
v -0.010030 0.240395 -0.014651
v 0.006613 0.245574 -0.016748
v 0.005020 0.234533 -0.018587
v 0.004642 0.233678 -0.014704
v 0.006235 0.244719 -0.012865
v 0.006235 0.244719 -0.012865
v 0.004642 0.233678 -0.014704
v -0.004781 0.234813 -0.015369
v 0.000119 0.240491 -0.013644
v -0.004404 0.235668 -0.019253
v 0.005020 0.234533 -0.018587
v 0.006613 0.245574 -0.016748
v 0.000497 0.241346 -0.017527
v -0.092077 0.238246 -0.035145
v -0.090439 0.001471 -0.029088
v 0.086258 0.003142 -0.011554
v 0.084619 0.239917 -0.017610
v -0.010030 0.240395 -0.014651
v -0.009653 0.241250 -0.018535
v -0.004404 0.235668 -0.019253
v -0.004781 0.234813 -0.015369
v -0.009653 0.241250 -0.018535
v -0.010030 0.240395 -0.014651
v -0.005034 0.244062 -0.013693
v -0.004659 0.245224 -0.017584
v 0.000497 0.241346 -0.017527
v 0.000119 0.240491 -0.013644
v -0.004781 0.234813 -0.015369
v -0.004404 0.235668 -0.019253
v 0.000119 0.240491 -0.013644
v 0.000497 0.241346 -0.017527
v -0.004659 0.245224 -0.017584
v -0.005034 0.244062 -0.013693
v 0.084004 0.240071 -0.011420
v 0.085642 0.003297 -0.005363
v -0.091054 0.001626 -0.022898
v -0.092693 0.238399 -0.028954
vt 0.116089 0.436523
vt 0.011719 0.436523
vt 0.011719 0.291260
vt 0.116089 0.291260
vt 0.011719 0.291260
vt 0.011719 0.436523
vt 0.005581 0.436523
vt 0.005581 0.291260
vt 0.011795 0.323486
vt 0.011795 0.427979
vt 0.005581 0.427979
vt 0.005581 0.323486
vt 0.011383 0.291260
vt 0.011383 0.436523
vt 0.005581 0.436523
vt 0.005581 0.291260
vt 0.011795 0.293701
vt 0.011795 0.397949
vt 0.005581 0.397949
vt 0.005581 0.293701
vt 0.716309 0.128540
vt 0.716309 0.268066
vt 0.711426 0.268066
vt 0.711426 0.128540
vt 0.716309 0.284180
vt 0.711426 0.284180
vt 0.711426 0.098328
vt 0.716309 0.098328
vt 0.711426 0.098328
vt 0.716309 0.098328
vt 0.716309 0.284180
vt 0.711426 0.284180
vt 0.711426 0.249023
vt 0.711426 0.109680
vt 0.716309 0.109680
vt 0.716309 0.249023
vt 0.069458 0.472168
vt 0.104919 0.472168
vt 0.104919 0.479492
vt 0.069458 0.479492
vt 0.069458 0.472168
vt 0.062286 0.472412
vt 0.062286 0.460205
vt 0.069458 0.460205
vt 0.104919 0.472168
vt 0.069458 0.472168
vt 0.069458 0.460205
vt 0.104919 0.460205
vt 0.112061 0.472412
vt 0.104919 0.472168
vt 0.104919 0.460205
vt 0.112061 0.460205
vt 0.069458 0.452881
vt 0.104919 0.452881
vt 0.104919 0.460205
vt 0.069458 0.460205
vt 0.078064 0.504395
vt 0.081726 0.504395
vt 0.081482 0.511719
vt 0.078186 0.511230
vt 0.081726 0.504395
vt 0.087158 0.504395
vt 0.086609 0.511719
vt 0.081482 0.511719
vt 0.073120 0.511719
vt 0.072510 0.504395
vt 0.078064 0.504395
vt 0.078186 0.511230
vt 0.078186 0.497314
vt 0.081543 0.496826
vt 0.081726 0.504395
vt 0.078064 0.504395
vt 0.081726 0.504395
vt 0.081543 0.496826
vt 0.086670 0.497070
vt 0.087158 0.504395
vt 0.072510 0.504395
vt 0.073120 0.497070
vt 0.078186 0.497314
vt 0.078064 0.504395
vt 0.077087 0.489746
vt 0.081482 0.489990
vt 0.081543 0.496826
vt 0.078186 0.497314
vt 0.068237 0.491943
vt 0.077087 0.489746
vt 0.078186 0.497314
vt 0.073120 0.497070
vt 0.081543 0.496826
vt 0.081482 0.489990
vt 0.089600 0.490234
vt 0.086670 0.497070
vt 0.081482 0.518555
vt 0.077148 0.519043
vt 0.078186 0.511230
vt 0.081482 0.511719
vt 0.089661 0.518066
vt 0.081482 0.518555
vt 0.081482 0.511719
vt 0.086609 0.511719
vt 0.078186 0.511230
vt 0.077148 0.519043
vt 0.068237 0.516602
vt 0.073120 0.511719
vt 0.716309 0.098511
vt 0.855469 0.098511
vt 0.855469 0.283936
vt 0.716309 0.283936
vt 0.092957 0.491455
vt 0.090271 0.497803
vt 0.086670 0.497070
vt 0.089600 0.490234
vt 0.087158 0.504395
vt 0.086670 0.497070
vt 0.090271 0.497803
vt 0.090881 0.504395
vt 0.089661 0.518066
vt 0.086609 0.511719
vt 0.090332 0.510742
vt 0.092834 0.517090
vt 0.090881 0.504395
vt 0.090332 0.510742
vt 0.086609 0.511719
vt 0.087158 0.504395
vt 0.716309 0.098328
vt 0.855469 0.098328
vt 0.855469 0.284180
vt 0.716309 0.284180
vn -0.0990 0.0248 0.9948
vn -0.9951 -0.0094 -0.0987
vn -0.9951 -0.0094 -0.0988
vn -0.0069 0.9996 -0.0256
vn 0.9951 0.0094 0.0988
vn 0.9951 0.0094 0.0987
vn 0.0069 -0.9996 0.0256
vn -0.0069 0.9997 -0.0255
vn 0.0091 0.9826 -0.1854
vn -0.0988 0.1854 0.9777
vn -0.0091 -0.9826 0.1853
vn 0.4609 0.8471 0.2644
vn -0.0650 -0.1308 0.9893
vn -0.0651 -0.1308 0.9893
vn 0.0693 0.1283 -0.9893
vn 0.0694 0.1284 -0.9893
vn -0.5195 0.8380 0.1669
vn -0.5195 0.8380 0.1668
vn -0.1282 -0.1315 0.9830
vn 0.1240 0.1288 -0.9839
vn -0.9763 -0.1714 -0.1323
vn -0.9763 -0.1712 -0.1327
vn -0.9763 -0.1713 -0.1325
vn 0.1366 0.1889 -0.9724
vn -0.1365 -0.1889 0.9725
vn -0.1366 -0.1889 0.9724
vn -0.1366 -0.1889 0.9725
vn 0.9863 -0.1527 0.0624
vn -0.0537 -0.1882 0.9807
vn -0.0537 -0.1881 0.9807
vn 0.0537 0.1882 -0.9807
vn 0.0537 0.1881 -0.9807
vn 0.0990 -0.0248 -0.9948
vn 0.7251 0.6544 0.2144
vn 0.6185 -0.7731 -0.1407
vn 0.6185 -0.7731 -0.1406
vn -0.7652 0.6403 0.0666
vn -0.7652 0.6403 0.0665
vn -0.5642 -0.7843 -0.2580
usemtl Material.003
s 1
f 3/1/1 2/2/1 1/3/1
f 4/4/1 3/1/1 1/3/1
f 7/5/2 6/6/3 5/7/3
f 8/8/2 7/5/2 5/7/3
f 11/9/4 10/10/4 9/11/4
f 12/12/4 11/9/4 9/11/4
f 15/13/5 14/14/6 13/15/6
f 16/16/5 15/13/5 13/15/6
f 19/17/7 18/18/7 17/19/7
f 20/20/7 19/17/7 17/19/7
f 23/21/8 22/22/4 21/23/4
f 24/24/8 23/21/8 21/23/4
f 27/25/3 26/26/3 25/27/2
f 28/28/2 27/25/3 25/27/2
f 31/29/6 30/30/6 29/31/6
f 32/32/6 31/29/6 29/31/6
f 35/33/7 34/34/7 33/35/7
f 36/36/7 35/33/7 33/35/7
f 39/37/9 38/38/9 37/39/9
f 40/40/9 39/37/9 37/39/9
f 43/41/2 42/42/2 41/43/2
f 44/44/2 43/41/2 41/43/2
f 47/45/10 46/46/10 45/47/10
f 48/48/10 47/45/10 45/47/10
f 51/49/6 50/50/6 49/51/6
f 52/52/6 51/49/6 49/51/6
f 55/53/11 54/54/11 53/55/11
f 56/56/11 55/53/11 53/55/11
f 59/57/12 58/58/12 57/59/12
f 60/60/12 59/57/12 57/59/12
f 63/61/13 62/62/14 61/63/14
f 64/64/14 63/61/13 61/63/14
f 67/65/15 66/66/15 65/67/16
f 68/68/16 67/65/15 65/67/16
f 71/69/17 70/70/17 69/71/18
f 72/72/18 71/69/17 69/71/18
f 75/73/19 74/74/19 73/75/19
f 76/76/19 75/73/19 73/75/19
f 79/77/20 78/78/20 77/79/20
f 80/80/20 79/77/20 77/79/20
f 83/81/21 82/82/22 81/83/23
f 84/84/23 83/81/21 81/83/23
f 87/85/24 86/86/24 85/87/24
f 88/88/24 87/85/24 85/87/24
f 91/89/25 90/90/26 89/91/25
f 92/92/27 91/89/25 89/91/25
f 95/93/28 94/94/28 93/95/28
f 96/96/28 95/93/28 93/95/28
f 99/97/29 98/98/30 97/99/29
f 100/100/29 99/97/29 97/99/29
f 103/101/31 102/102/31 101/103/32
f 104/104/31 103/101/31 101/103/32
f 107/105/33 106/106/33 105/107/33
f 108/108/33 107/105/33 105/107/33
f 111/109/34 110/110/34 109/111/34
f 112/112/34 111/109/34 109/111/34
f 115/113/35 114/114/35 113/115/36
f 116/116/36 115/113/35 113/115/36
f 119/117/37 118/118/38 117/119/38
f 120/120/37 119/117/37 117/119/38
f 123/121/39 122/122/39 121/123/39
f 124/124/39 123/121/39 121/123/39
f 127/125/1 126/126/1 125/127/1
f 128/128/1 127/125/1 125/127/1
